HIERARCHY
ROOT RootJoint
{
    OFFSET   0.000000   0.000000   0.000000
    CHANNELS 6 Xposition Yposition Zposition Xrotation Yrotation Zrotation
    JOINT pelvis_lowerback
    {
        OFFSET   0.000000   0.093605   0.000000
        CHANNELS 3 Xrotation Yrotation Zrotation
        JOINT lowerback_torso
        {
            OFFSET   0.000000   0.100000   0.000000
            CHANNELS 3 Xrotation Yrotation Zrotation
            JOINT torso_head
            {
                OFFSET   0.000000   0.282350   0.000000
                CHANNELS 3 Xrotation Yrotation Zrotation
                End Site
                {
                    OFFSET   0.000000   0.192650   0.000000
                }
            }
            JOINT rTorso_Clavicle
            {
                OFFSET  -0.001000   0.157500   0.000000
                CHANNELS 3 Xrotation Yrotation Zrotation
                JOINT rShoulder
                {
                    OFFSET  -0.117647   0.000000   0.000000
                    CHANNELS 3 Xrotation Yrotation Zrotation
                    JOINT rElbow
                    {
                        OFFSET  -0.245000   0.000000   0.000000
                        CHANNELS 3 Xrotation Yrotation Zrotation
                        JOINT rWrist
                        {
                            OFFSET  -0.240000   0.000000   0.000000
                            CHANNELS 3 Xrotation Yrotation Zrotation
                            End Site
                            {
                                OFFSET  -0.116353  -0.002500   0.000000
                            }
                        }
                    }
                }
            }
            JOINT lTorso_Clavicle
            {
                OFFSET   0.001000   0.157500   0.000000
                CHANNELS 3 Xrotation Yrotation Zrotation
                JOINT lShoulder
                {
                    OFFSET   0.117647   0.000000   0.000000
                    CHANNELS 3 Xrotation Yrotation Zrotation
                    JOINT lElbow
                    {
                        OFFSET   0.245000   0.000000   0.000000
                        CHANNELS 3 Xrotation Yrotation Zrotation
                        JOINT lWrist
                        {
                            OFFSET   0.240000   0.000000   0.000000
                            CHANNELS 3 Xrotation Yrotation Zrotation
                            End Site
                            {
                                OFFSET   0.116353  -0.002500   0.000000
                            }
                        }
                    }
                }
            }
        }
    }
    JOINT rHip
    {
        OFFSET  -0.100000  -0.051395   0.000000
        CHANNELS 3 Xrotation Yrotation Zrotation
        JOINT rKnee
        {
            OFFSET   0.000000  -0.410000   0.000000
            CHANNELS 3 Xrotation Yrotation Zrotation
            JOINT rAnkle
            {
                OFFSET   0.000000  -0.390000   0.000000
                CHANNELS 3 Xrotation Yrotation Zrotation
                JOINT rToeJoint
                {
                    OFFSET   0.000000  -0.050000   0.130000
                    CHANNELS 3 Xrotation Yrotation Zrotation
                    End Site
                    {
                        OFFSET  -0.010000   0.002000   0.060000
                    }
                }
            }
        }
    }
    JOINT lHip
    {
        OFFSET   0.100000  -0.051395   0.000000
        CHANNELS 3 Xrotation Yrotation Zrotation
        JOINT lKnee
        {
            OFFSET   0.000000  -0.410000   0.000000
            CHANNELS 3 Xrotation Yrotation Zrotation
            JOINT lAnkle
            {
                OFFSET   0.000000  -0.390000   0.000000
                CHANNELS 3 Xrotation Yrotation Zrotation
                JOINT lToeJoint
                {
                    OFFSET   0.000000  -0.050000   0.130000
                    CHANNELS 3 Xrotation Yrotation Zrotation
                    End Site
                    {
                        OFFSET   0.010000   0.002000   0.060000
                    }
                }
            }
        }
    }
}
MOTION
Frames: 10
Frame Time:   0.008333
 -2.479992   0.930690   5.124757 -17.393330 -19.685555  -2.369464  16.326941   4.493788  -2.121623   1.329344   0.459869  -0.604260   2.932690   0.700918   1.501281   0.511823  -6.588670   4.886802  -1.894175  -1.215935  43.019086  -0.002854  34.800520   0.006885   0.950406   2.655842  -2.971028   4.241452   9.525760  -7.690185   3.508790   3.249326 -48.647555   0.000490 -20.159253  -0.000778   0.333058  -1.291985   0.816297  18.738403   3.132823  -1.011326  14.890635  -0.000062  -0.009012  -3.970495   8.575377  -3.380797 -19.311441   0.000397   0.000070 -28.558680   3.962310   8.844809  46.646876   0.014840   0.012952  -2.691410   7.205304  -6.847038  -1.149916   0.000946  -0.002353
 -2.480532   0.929276   5.131136 -17.594314 -20.128622  -2.500497  16.192234   4.550414  -2.057752   1.533252   0.546971  -0.528829   3.076980   0.842403   1.455864   0.475957  -6.645422   5.027374  -2.025935  -1.219504  42.763896  -0.002748  35.021330   0.006569   1.017253   2.715925  -3.062422   4.332648   9.769815  -7.835862   3.740330   3.422361 -48.667753   0.000526 -19.820174  -0.000765   0.366982  -1.301823   0.804275  19.043114   3.173962  -1.241018  15.472814  -0.000001  -0.009365  -4.715279   8.986906  -3.361866 -19.286528   0.000327   0.000057 -28.352857   4.059953   9.126128  44.801509   0.014814   0.013697  -2.279737   7.105010  -6.964422  -1.013534   0.000872  -0.002432
 -2.481068   0.927702   5.137634 -17.798488 -20.548101  -2.653531  16.044057   4.588808  -1.966793   1.734182   0.625915  -0.445631   3.218671   0.973608   1.415509   0.448941  -6.716173   5.153566  -2.144345  -1.232146  42.515521  -0.002651  35.223716   0.006271   1.080439   2.770313  -3.178155   4.443254  10.022006  -7.983003   3.977956   3.601954 -48.692525   0.000567 -19.491776  -0.000744   0.399396  -1.261177   0.787895  19.357758   3.214030  -1.450639  16.059975   0.000060  -0.009595  -5.483460   9.380506  -3.348455 -19.250550   0.000280   0.000047 -28.127594   4.137969   9.426013  43.022476   0.014681   0.014046  -1.895674   7.010161  -7.072623  -0.871480   0.000791  -0.002495
 -2.481592   0.926031   5.144216 -17.995886 -20.932792  -2.816476  15.890995   4.615943  -1.861039   1.920800   0.694142  -0.355695   3.350230   1.095235   1.380332   0.433266  -6.797878   5.272056  -2.246971  -1.254262  42.279916  -0.002525  35.407653   0.005937   1.139613   2.802126  -3.305731   4.559913  10.270181  -8.128024   4.210806   3.779064 -48.718848   0.000603 -19.179241  -0.000689   0.430280  -1.186759   0.770180  19.679633   3.247715  -1.644443  16.633916   0.000131  -0.009623  -6.246752   9.749391  -3.335219 -19.227514   0.000237   0.000039 -27.910135   4.205120   9.727941  41.350682   0.014194   0.013874  -1.537758   6.921144  -7.172413  -0.740345   0.000707  -0.002465
 -2.482093   0.924301   5.150858 -18.181443 -21.285248  -2.981210  15.736098   4.635537  -1.748590   2.091518   0.753087  -0.262402   3.471635   1.208444   1.348967   0.426688  -6.885499   5.386051  -2.335935  -1.282757  42.059577  -0.002367  35.575091   0.005565   1.194994   2.811306  -3.434530   4.675783  10.508611  -8.268425   4.433758   3.949256 -48.745728   0.000626 -18.884450  -0.000612   0.459616  -1.096070   0.752471  20.004483   3.275535  -1.829318  17.188572   0.000217  -0.009475  -6.992008  10.094226  -3.319063 -19.228150   0.000189   0.000031 -27.706794   4.266034  10.021946  39.789298   0.013416   0.013345  -1.203965   6.837582  -7.264655  -0.620548   0.000628  -0.002369
 -2.482559   0.922520   5.157534 -18.349164 -21.612951  -3.141022  15.580518   4.650571  -1.635544   2.245516   0.805016  -0.169048   3.583412   1.314016   1.320384   0.426170  -6.974482   5.495840  -2.414159  -1.314344  41.854996  -0.002190  35.728554   0.005171   1.246993   2.804277  -3.558511   4.787325  10.734633  -8.401963   4.644453   4.110403 -48.772397   0.000636 -18.607996  -0.000533   0.487485  -1.000524   0.734824  20.329861   3.300268  -2.012488  17.714240   0.000315  -0.009177  -7.725257  10.417819  -3.295084 -19.233368   0.000148   0.000024 -27.522086   4.322417  10.302761  38.333736   0.012468   0.012650  -0.892625   6.759129  -7.350053  -0.511629   0.000555  -0.002235
 -2.482990   0.920715   5.164233 -18.499917 -21.916840  -3.298247  15.426903   4.661465  -1.520952   2.384534   0.850804  -0.075658   3.686728   1.412487   1.294158   0.429565  -7.062086   5.602312  -2.483839  -1.347103  41.665423  -0.002004  35.869645   0.004769   1.295983   2.785755  -3.676122   4.892546  10.946841  -8.529435   4.841847   4.261490 -48.798788   0.000630 -18.349527  -0.000460   0.514062  -0.905926   0.717777  20.651118   3.320817  -2.190546  18.216817   0.000415  -0.008798  -8.429554  10.720366  -3.269395 -19.268888   0.000096   0.000017 -27.352612   4.374355  10.570799  36.977225   0.011414   0.011848  -0.602215   6.685480  -7.429135  -0.412645   0.000490  -0.002077
 -2.483388   0.918753   5.171090 -18.682771 -22.272336  -3.443386  15.231816   4.678031  -1.449155   2.604678   0.898321   0.029833   3.824138   1.545038   1.263304   0.377497  -7.155057   5.725044  -2.598873  -1.380872  41.433893  -0.001804  35.948995   0.004253   1.359260   2.790445  -3.741229   4.947106  11.177797  -8.649671   5.056748   4.437911 -48.838784   0.000636 -18.064004  -0.000368   0.526973  -0.858152   0.725438  21.013057   3.342800  -2.429279  18.718722   0.000496  -0.008676  -9.209177  11.058389  -3.252600 -19.215793   0.000125   0.000018 -27.153007   4.438337  10.840473  35.800429   0.010662   0.011385  -0.268881   6.560227  -7.514316  -0.317685   0.000398  -0.001993
 -2.483759   0.916702   5.178029 -18.863370 -22.618593  -3.591298  15.037200   4.685892  -1.371251   2.816253   0.940918   0.132168   3.958396   1.669110   1.235421   0.329015  -7.249805   5.837377  -2.707018  -1.416934  41.209181  -0.001628  36.019945   0.003795   1.417682   2.782120  -3.831251   5.007426  11.403105  -8.771853   5.265363   4.609519 -48.880404   0.000619 -17.792442  -0.000314   0.538094  -0.790905   0.735896  21.383917   3.367029  -2.670455  19.208573   0.000580  -0.008502  -9.990996  11.382526  -3.239648 -19.163665   0.000152   0.000020 -26.955772   4.492137  11.113283  34.726838   0.009961   0.010849   0.044255   6.442210  -7.592890  -0.222168   0.000307  -0.001913
 -2.484106   0.914604   5.185030 -19.030676 -22.941842  -3.738601  14.843640   4.685567  -1.287648   3.010303   0.975553   0.232819   4.083668   1.784443   1.210627   0.288200  -7.346438   5.942096  -2.804582  -1.455908  40.996508  -0.001465  36.083539   0.003381   1.472553   2.761804  -3.930709   5.068157  11.617664  -8.892427   5.463786   4.772496 -48.922790   0.000585 -17.536900  -0.000273   0.548699  -0.713644   0.743501  21.753218   3.387940  -2.906409  19.683422   0.000671  -0.008248 -10.750584  11.687125  -3.226200 -19.142921   0.000144   0.000018 -26.768487   4.539456  11.382241  33.731106   0.009241   0.010183   0.336754   6.331751  -7.665247  -0.133446   0.000228  -0.001806
